HIERARCHY
ROOT hip
{
	OFFSET 0.000000 0.000000 0.000000 
	CHANNELS 6 Xposition Yposition Zposition Xrotation Zrotation Yrotation
	JOINT abdomen
	{
		OFFSET 0.000000 3.402643 0.000000 
		CHANNELS 3 Xrotation Zrotation Yrotation
		JOINT chest
		{
			OFFSET 0.000000 8.438565 -0.680529 
			CHANNELS 3 Xrotation Zrotation Yrotation
			JOINT neck
			{
				OFFSET 0.000000 10.207942 -0.272212 
				CHANNELS 3 Xrotation Zrotation Yrotation
				JOINT head
				{
					OFFSET 0.000000 3.130431 0.000000 
					CHANNELS 3 Xrotation Zrotation Yrotation
					End Site
					{
						OFFSET 0.000000 3.130435 0.000000 
					}
				}
			}
			JOINT lCollar
			{
				OFFSET 3.470700 6.669187 -0.816635 
				CHANNELS 3 Yrotation Zrotation Xrotation
				JOINT lShldr
				{
					OFFSET 3.198488 0.000000 0.000000 
					CHANNELS 3 Zrotation Yrotation Xrotation
					JOINT lForeArm
					{
						OFFSET 10.139888 0.000000 0.000000 
						CHANNELS 3 Yrotation Zrotation Xrotation
						JOINT lHand
						{
							OFFSET 8.370511 0.000000 0.000000 
							CHANNELS 3 Zrotation Yrotation Xrotation
							End Site
							{
								OFFSET 4.083176 0.000000 0.000000 
							}
						}
					}
				}
			}
			JOINT rCollar
			{
				OFFSET -3.470700 6.669187 -0.816635 
				CHANNELS 3 Yrotation Zrotation Xrotation
				JOINT rShldr
				{
					OFFSET -3.198488 0.000000 0.000000 
					CHANNELS 3 Zrotation Yrotation Xrotation
					JOINT rForeArm
					{
						OFFSET -10.139888 0.000000 0.000000 
						CHANNELS 3 Yrotation Zrotation Xrotation
						JOINT rHand
						{
							OFFSET -8.370511 0.000000 0.000000 
							CHANNELS 3 Zrotation Yrotation Xrotation
							End Site
							{
								OFFSET -4.083176 0.000000 0.000000 
							}
						}
					}
				}
			}
		}
	}
	JOINT lThigh
	{
		OFFSET 5.308129 -1.633274 1.361059 
		CHANNELS 3 Xrotation Zrotation Yrotation
		JOINT lShin
		{
			OFFSET -2.041588 -20.007561 0.000000 
			CHANNELS 3 Xrotation Zrotation Yrotation
			JOINT lFoot
			{
				OFFSET 0.000000 -19.190928 -1.224953 
				CHANNELS 3 Xrotation Yrotation Zrotation
				End Site
				{
					OFFSET 0.000000 -2.449906 4.627600 
				}
			}
		}
	}
	JOINT rThigh
	{
		OFFSET -5.308129 -1.633274 1.361059 
		CHANNELS 3 Xrotation Zrotation Yrotation
		JOINT rShin
		{
			OFFSET 2.041588 -20.007561 0.000000 
			CHANNELS 3 Xrotation Zrotation Yrotation
			JOINT rFoot
			{
				OFFSET 0.000000 -19.190928 -1.224953 
				CHANNELS 3 Xrotation Yrotation Zrotation
				End Site
				{
					OFFSET 0.000000 -2.449906 4.627600 
				}
			}
		}
	}
}
MOTION
Frames: 18
Frame Time: 0.011111
0.156346 49.897141 -86.363297 2.929026 0.325733 1.278084 40.476933 -4.267669 -4.479232 -26.757019 0.046778 -0.517249 -12.815144 -2.017299 -0.455781 -11.883986 6.072431 -2.179249 8.861669 -1.932660 3.351237 -72.205017 -46.428402 55.122009 -92.689850 7.528041 36.732536 8.524705 12.647240 -16.409557 -6.806992 -0.756156 2.905732 70.110489 13.381525 42.781925 86.049835 -1.446199 28.786228 -8.534408 -12.637552 41.702984 -13.320050 0.848076 3.208053 45.849266 -4.183147 -6.768339 -25.578543 -5.630134 -4.901254 -13.542601 -10.212655 -7.920137 101.351372 -2.850716 9.733045 6.176325 -10.863083 3.915618 
0.193794 49.783863 -84.895325 3.202734 0.365248 0.988750 40.208214 -4.203701 -4.611336 -28.036362 0.204892 -0.572622 -11.163536 -2.032385 -0.358417 -12.343771 5.787302 -1.936041 8.861669 -1.932660 3.351237 -72.388718 -47.357719 55.872551 -92.972290 7.675861 36.885117 8.524705 12.647240 -16.956430 -6.806992 -0.756156 2.905732 69.983269 10.569762 42.243134 86.059998 -1.430519 28.826534 -8.534408 -12.637552 41.878765 -11.396056 0.683738 3.258368 45.426220 -4.225684 -6.700926 -27.073509 -5.116196 -4.629145 -17.066265 -10.641410 -7.492537 102.741760 -3.046602 9.737333 5.380517 -10.426973 3.767210 
0.221256 49.749531 -83.422058 3.329930 0.577998 0.825984 39.851463 -4.119425 -5.135873 -28.006924 0.270981 -0.730156 -10.186083 -2.104451 -0.166365 -13.141685 5.855470 -1.578976 8.861669 -1.932660 3.351237 -72.485878 -49.177635 56.197304 -93.312721 7.849913 37.071262 8.524705 12.647240 -16.868540 -6.806992 -0.756156 2.905732 70.066719 9.191268 41.935226 86.059998 -1.430519 28.826534 -8.534408 -12.637552 42.201027 -9.042454 0.322386 3.190449 44.401184 -4.313332 -6.598473 -27.548521 -5.300756 -4.708407 -20.387300 -11.247801 -7.141979 103.452065 -3.143718 9.730989 4.902620 -9.693481 3.635968 
0.245286 49.813198 -81.909149 3.447172 0.692108 0.853707 39.713879 -3.794286 -5.757915 -28.240900 0.267946 -0.928756 -9.804390 -2.155451 0.034170 -13.267015 6.145988 -1.207914 8.861669 -1.932660 3.351237 -72.422409 -50.659828 56.394394 -93.779388 8.080014 37.325104 8.524705 12.647240 -16.536510 -6.806992 -0.756156 2.905732 70.127304 7.892995 41.796665 86.059998 -1.430519 28.826534 -8.534408 -12.637552 42.435406 -6.621552 0.067661 2.957355 43.346313 -4.403744 -6.473965 -27.836058 -4.786691 -4.431313 -23.367289 -11.571373 -6.895298 103.637199 -3.172991 9.718318 3.972326 -8.785345 3.454729 
0.245909 49.911808 -80.378769 3.603283 0.793232 1.077375 39.577011 -3.383235 -6.561062 -28.503956 0.330950 -1.197330 -9.706089 -2.250905 0.283984 -13.039254 6.537027 -0.764911 8.861669 -1.932660 3.351237 -72.421021 -52.057106 56.534885 -94.330017 8.333490 37.605080 8.524705 12.647240 -16.419323 -6.806992 -0.756156 2.905732 70.097878 6.817579 41.828812 86.061089 -1.431309 28.836252 -8.534408 -12.637552 42.620956 -4.219065 -0.127484 2.510865 41.993790 -4.514067 -6.339451 -27.286728 -4.196376 -4.128721 -26.102453 -11.718204 -6.639992 103.286560 -3.124262 9.731993 5.589776 -8.623915 3.591426 
0.247158 50.054115 -78.822487 3.798836 0.896053 0.950276 39.348042 -3.164704 -7.246944 -28.533148 0.610628 -1.428806 -10.066817 -2.370558 0.619359 -12.510067 6.841045 -0.153557 8.861669 -1.932660 3.351237 -72.649078 -53.520290 56.655586 -94.877724 8.571277 37.897167 8.524705 12.647240 -16.311903 -6.806992 -0.756156 2.905732 69.859642 5.955054 41.963436 86.073616 -1.406698 28.886919 -8.534408 -12.637552 42.777203 -1.746061 -0.312469 2.344561 40.353848 -4.638494 -6.163100 -26.175970 -3.576176 -3.853685 -28.689196 -11.502856 -5.965823 102.430344 -3.007713 9.738479 5.638678 -7.916770 3.516317 
0.254647 50.262264 -77.241539 3.916756 1.281674 0.724198 39.195568 -3.311703 -8.022117 -28.504107 0.917051 -1.624040 -10.543313 -2.231236 0.825614 -11.958332 6.757107 0.305691 8.861669 -1.932660 3.351237 -72.705742 -54.675560 56.696098 -95.479088 8.817467 38.196060 8.524705 12.647240 -16.399794 -6.806992 -0.756156 2.905732 69.673241 5.117709 42.084400 86.091118 -1.385194 28.976685 -8.534408 -12.637552 42.972515 0.944153 -0.827149 2.257518 38.581879 -4.800673 -5.916843 -25.244471 -3.175528 -3.702389 -31.092255 -11.503589 -5.098922 101.069313 -2.802069 9.744172 4.232571 -6.440691 3.296352 
0.233739 50.492882 -75.635017 3.878211 1.738461 1.067530 39.074352 -3.233732 -9.227532 -28.611431 1.246393 -1.964497 -10.131255 -2.228648 1.023943 -11.978588 6.850685 0.711139 8.861669 -1.932660 3.351237 -72.550110 -55.099236 56.575768 -96.158897 9.075618 38.550507 8.524705 12.647240 -16.907606 -6.806992 -0.756156 2.905732 69.356010 4.114529 42.391739 86.103996 -1.361735 29.047064 -8.534408 -12.637552 43.187359 3.833918 -1.306830 1.661367 36.619930 -4.937240 -5.690504 -23.593370 -3.045378 -3.713865 -32.853931 -11.784033 -4.702429 99.192940 -2.528439 9.752303 2.629621 -5.087504 3.132866 
0.188177 50.715698 -74.011635 4.024255 1.766775 1.465747 38.663322 -2.834822 -10.102392 -28.533579 1.596075 -2.273623 -10.267316 -2.352883 1.261383 -11.411235 7.139966 1.154591 8.861669 -1.932660 3.351237 -72.561401 -55.783497 56.647865 -96.772125 9.295403 38.854397 8.524705 12.647240 -17.220106 -6.806992 -0.756156 2.905732 69.014702 3.289553 42.551289 86.113564 -1.346373 29.097128 -8.534408 -12.637552 43.353371 6.383309 -1.180849 1.081877 34.624523 -5.073568 -5.438692 -21.015839 -3.336067 -3.902519 -34.474743 -11.520592 -4.523560 96.927025 -2.205986 9.780570 1.932904 -4.061946 3.083636 
0.142615 51.006233 -72.344887 4.307398 1.525383 1.202171 38.285553 -2.742793 -10.036122 -27.752012 1.508156 -2.254588 -12.119032 -1.619671 1.159309 -10.045970 6.781827 1.191761 8.861669 -1.932660 3.351237 -72.466522 -57.652908 57.352238 -97.269005 9.461699 39.091434 8.524705 12.647240 -17.239637 -6.806992 -0.756156 2.905732 69.667793 3.237004 42.006210 86.120331 -1.339835 29.136621 -8.534408 -12.637552 43.392433 8.590281 -0.731915 1.140013 32.624718 -5.200189 -5.189722 -17.841026 -4.228361 -4.242561 -35.993835 -10.497710 -3.896726 94.206284 -1.806311 9.769113 1.894991 -3.323954 3.048125 
0.090499 51.304882 -70.648796 4.649300 1.356988 0.904182 36.680126 -2.058748 -11.435583 -28.598789 2.916093 -2.857936 -8.937920 -3.159904 2.042600 -10.947273 7.419483 2.564840 8.861669 -1.932660 3.351237 -72.651207 -55.545471 55.670322 -98.188942 9.748915 39.541874 8.524705 12.647240 -17.727915 -6.806992 -0.756156 2.905732 66.700661 1.139851 44.354980 86.136795 -1.317793 29.226414 -8.534408 -12.637552 43.812359 10.665556 -0.379718 1.160556 30.679649 -5.322035 -4.922215 -14.454808 -4.274861 -4.192643 -37.387821 -9.559276 -3.248824 91.136398 -1.366405 9.725504 0.717190 -2.628387 3.044668 
0.037137 51.596672 -68.947403 4.873767 1.299806 0.963720 36.478439 -1.792099 -11.729989 -27.815830 2.848493 -2.940885 -11.417214 -2.695977 2.047135 -8.886694 7.216907 2.685822 8.861669 -1.932660 3.351237 -72.557297 -57.116108 56.169651 -98.725861 9.901867 39.804626 8.524705 12.647240 -18.128307 -6.806992 -0.756156 2.905732 67.181694 1.416090 43.924065 86.143997 -1.311832 29.275875 -8.534408 -12.637552 44.144390 12.811615 -0.058454 0.896535 28.648211 -5.433878 -4.690017 -10.774697 -3.854601 -3.929079 -38.348110 -8.905972 -2.801296 87.765182 -0.877763 9.671785 -1.667104 -1.900438 3.028860 
0.008425 51.875965 -67.251625 4.912589 1.224352 1.036579 36.481560 -1.410977 -12.011951 -27.228855 2.849558 -3.055556 -13.584851 -2.392253 1.995853 -7.054551 7.024552 2.687392 8.861669 -1.932660 3.351237 -72.518089 -58.374157 56.622932 -99.223747 10.035822 40.045200 8.524705 12.647240 -18.206432 -6.806992 -0.756156 2.905732 67.430260 1.592650 43.562443 86.146263 -1.312660 29.285580 -8.534408 -12.637552 44.339703 15.050460 0.273858 0.539975 26.511202 -5.541145 -4.386204 -6.491253 -3.277273 -3.626333 -38.921547 -8.358814 -2.422465 84.111099 -0.380926 9.574844 -3.318997 -1.432082 3.063235 
-0.010299 52.139668 -65.536804 5.039547 0.963666 0.634129 35.946407 -1.294471 -11.741429 -27.432549 2.611616 -2.995522 -13.120719 -1.653180 1.687413 -6.907489 6.320853 2.400140 8.861669 -1.932660 3.351237 -71.899612 -58.129860 57.170235 -99.878502 10.204089 40.359764 8.524705 12.647240 -18.167370 -6.806992 -0.756156 2.905732 67.855263 0.403475 43.133724 86.149734 -1.304442 29.305658 -8.534408 -12.637552 44.300636 17.198153 0.674002 0.414020 24.171829 -5.647183 -4.081215 -1.720275 -1.904802 -3.233951 -39.403240 -7.431616 -1.862495 80.116905 0.185489 9.428676 -4.242430 -1.357674 3.071127 
-0.028710 52.413658 -63.791405 5.263943 0.586024 0.132544 35.133839 -1.062240 -11.467176 -28.008883 2.596676 -2.984382 -11.711364 -1.161782 1.567635 -7.290630 5.584849 2.389554 8.861669 -1.932660 3.351237 -71.359512 -56.942547 57.692455 -100.620644 10.379829 40.713120 8.524705 12.647240 -18.626356 -6.806992 -0.756156 2.905732 67.720367 -1.309975 43.036991 86.165863 -1.293110 29.414299 -8.534408 -12.637552 44.515480 19.284199 1.152889 0.126352 21.595133 -5.748298 -3.721260 3.414390 0.708970 -2.977383 -39.636852 -6.386714 -1.254881 75.838219 0.771628 9.225892 -5.097555 -1.475778 3.008276 
-0.038073 52.694832 -62.036343 5.381094 0.544816 -0.056489 34.564186 -0.800240 -11.770105 -28.176434 2.882732 -3.134487 -11.503881 -1.107599 1.759170 -6.880164 5.209123 2.846965 8.861669 -1.932660 3.351237 -71.246056 -56.209080 58.069996 -101.191406 10.499304 40.991268 8.524705 12.647240 -18.860731 -6.806992 -0.756156 2.905732 67.119576 -2.389395 43.251678 86.189064 -1.274734 29.562458 -8.534408 -12.637552 44.876812 21.563255 1.357433 -0.594216 18.829445 -5.841095 -3.349979 8.844765 4.329053 -3.175509 -39.503498 -5.936533 -0.728369 71.302681 1.367692 8.958431 -6.242083 -1.471804 2.995760 
-0.025277 52.944801 -60.262547 5.468817 0.539522 -0.409339 34.049831 -0.663814 -11.688009 -28.068882 2.877520 -3.137321 -11.804924 -0.837414 1.772163 -6.194951 4.624546 3.010388 8.861669 -1.932660 3.351237 -71.041161 -55.932293 58.541615 -101.602257 10.584224 41.188931 8.524705 12.647240 -18.235733 -6.806992 -0.756156 2.905732 66.943527 -3.149508 43.069138 86.206245 -1.263577 29.680853 -8.534408 -12.637552 45.306496 23.958868 1.416067 -1.188146 15.982141 -5.919649 -2.956300 13.414273 7.858282 -3.922781 -39.227890 -5.527217 -0.128711 66.556335 1.944607 8.639585 -7.102740 -1.467907 2.962828 
-0.018100 53.168552 -58.477825 5.614854 0.427272 -0.752821 33.446854 -0.497963 -11.410802 -27.374283 2.713320 -3.065250 -12.731558 -0.347194 1.656767 -5.329965 3.908701 2.976262 8.861669 -1.932660 3.351237 -70.820648 -56.292614 58.989761 -101.929276 10.648682 41.337093 8.524705 12.647240 -17.093153 -6.806992 -0.756156 2.905732 67.200546 -3.218533 42.514759 86.214149 -1.268274 29.749163 -8.534408 -12.637552 45.999859 26.336765 1.630526 -1.724662 13.020006 -5.944667 -2.545269 22.231066 12.615238 -5.979590 -38.764297 -5.028543 0.473882 61.636517 2.530735 8.273275 -7.758755 -1.800372 2.904869 
